<svg xmlns="http://www.w3.org/2000/svg" width="31" height="31" viewBox="0 0 31 31" fill="none">
  <path d="M16.7918 15.0363L18.2398 13.5897C18.4832 13.3542 18.8094 13.2238 19.1481 13.2265C19.4868 13.2292 19.8108 13.3648 20.0505 13.6041C20.2902 13.8434 20.4262 14.1673 20.4294 14.506C20.4326 14.8446 20.3026 15.171 20.0675 15.4148L16.4134 19.0689C16.2937 19.1893 16.1514 19.2848 15.9947 19.35C15.838 19.4152 15.6699 19.4487 15.5002 19.4487C15.3304 19.4487 15.1624 19.4152 15.0056 19.35C14.8489 19.2848 14.7066 19.1893 14.587 19.0689L10.9328 15.4148C10.8129 15.2947 10.7178 15.1522 10.653 14.9953C10.5881 14.8385 10.5548 14.6704 10.5549 14.5007C10.5551 14.331 10.5886 14.1629 10.6537 14.0062C10.7187 13.8494 10.814 13.707 10.9341 13.5871C11.0542 13.4672 11.1968 13.3721 11.3536 13.3072C11.5104 13.2424 11.6785 13.2091 11.8482 13.2092C12.018 13.2093 12.186 13.2429 12.3427 13.3079C12.4995 13.373 12.6419 13.4683 12.7618 13.5884L14.2085 15.0363V7.75004C14.2085 7.40747 14.3446 7.07893 14.5868 6.83669C14.8291 6.59446 15.1576 6.45837 15.5002 6.45837C15.8427 6.45837 16.1713 6.59446 16.4135 6.83669C16.6557 7.07893 16.7918 7.40747 16.7918 7.75004V15.0363ZM7.75016 21.9584H23.2502C23.5927 21.9584 23.9213 22.0945 24.1635 22.3367C24.4057 22.5789 24.5418 22.9075 24.5418 23.25C24.5418 23.5926 24.4057 23.9212 24.1635 24.1634C23.9213 24.4056 23.5927 24.5417 23.2502 24.5417H7.75016C7.40759 24.5417 7.07905 24.4056 6.83682 24.1634C6.59458 23.9212 6.4585 23.5926 6.4585 23.25C6.4585 22.9075 6.59458 22.5789 6.83682 22.3367C7.07905 22.0945 7.40759 21.9584 7.75016 21.9584Z" fill="black"/>
</svg>