<svg xmlns="http://www.w3.org/2000/svg" width="16" height="16" viewBox="0 0 16 16" fill="none">
  <path d="M4.99375 13.0125H15C16.3344 13.0125 16.3344 15.0125 15 15.0125H4.99375C3.66875 15.0125 3.66875 13.0125 4.99375 13.0125ZM4.99375 9.0125H15C16.3344 9.0125 16.3344 7.0125 15 7.0125H4.99375C3.66875 7.0125 3.66875 9.0125 4.99375 9.0125ZM4.99375 3H15C16.3344 3 16.3344 1 15 1H4.99375C3.66875 1 3.66875 3 4.99375 3ZM0 2.00312C0 3.33437 2 3.33437 2 2.00312C2 0.66875 0 0.66875 0 2.00312ZM0 8.0125C0 9.34375 2 9.34375 2 8.0125C2 6.67812 0 6.67812 0 8.0125ZM0 14.0125C0 15.3437 2 15.3437 2 14.0125C2 12.6781 0 12.6781 0 14.0125Z" fill="#6B6C7E"/>
</svg>