<svg width="14" height="15" viewBox="0 0 14 15" fill="none" xmlns="http://www.w3.org/2000/svg">
<path d="M6.57784 1.06145C6.76629 0.737899 7.23371 0.737898 7.42216 1.06145L9.41868 4.48926C9.48772 4.60778 9.60339 4.69183 9.73745 4.72086L13.6144 5.56041C13.9804 5.63965 14.1248 6.0842 13.8754 6.36341L11.2323 9.32146C11.1409 9.42375 11.0967 9.55973 11.1105 9.6962L11.5101 13.6429C11.5478 14.0154 11.1697 14.2902 10.827 14.1392L7.19701 12.5395C7.07149 12.4842 6.92851 12.4842 6.80299 12.5395L3.17296 14.1392C2.83032 14.2902 2.45216 14.0154 2.48988 13.6429L2.88948 9.6962C2.9033 9.55973 2.85911 9.42375 2.76772 9.32146L0.12464 6.36341C-0.124841 6.0842 0.0196004 5.63965 0.385551 5.56041L4.26255 4.72086C4.39661 4.69183 4.51228 4.60778 4.58132 4.48926L6.57784 1.06145Z" fill="#AEB9E1"/>
</svg>
