<svg xmlns="http://www.w3.org/2000/svg" width="58" height="46" viewBox="0 0 58 46" fill="none">
  <path d="M26.1665 34.3335C26.1665 35.1363 26.4385 35.8087 26.9825 36.3508C27.5246 36.8948 28.1971 37.1668 28.9998 37.1668C29.8026 37.1668 30.476 36.9071 31.02 36.3877C31.5621 35.8682 31.8332 35.2071 31.8332 34.4043V25.8335H36.9332C37.5943 25.8335 38.0306 25.5388 38.2422 24.9495C38.4556 24.3583 38.3498 23.8502 37.9248 23.4252L29.9915 15.4918C29.7082 15.2085 29.3776 15.0668 28.9998 15.0668C28.6221 15.0668 28.2915 15.2085 28.0082 15.4918L20.0748 23.4252C19.6498 23.8502 19.5441 24.3583 19.7575 24.9495C19.9691 25.5388 20.4054 25.8335 21.0665 25.8335H26.1665V34.3335ZM6.33317 45.6668C4.77484 45.6668 3.44128 45.1124 2.3325 44.0037C1.22184 42.893 0.666504 41.5585 0.666504 40.0002V6.00016C0.666504 4.44183 1.22184 3.10827 2.3325 1.9995C3.44128 0.888829 4.77484 0.333496 6.33317 0.333496H20.9957C21.7512 0.333496 22.4718 0.475163 23.1575 0.758496C23.8413 1.04183 24.4429 1.44322 24.9623 1.96266L28.9998 6.00016H51.6665C53.2248 6.00016 54.5593 6.5555 55.67 7.66616C56.7788 8.77494 57.3332 10.1085 57.3332 11.6668V40.0002C57.3332 41.5585 56.7788 42.893 55.67 44.0037C54.5593 45.1124 53.2248 45.6668 51.6665 45.6668H6.33317Z" fill="#180D5B"/>
</svg>