<svg width="27" height="27" viewBox="0 0 27 27" fill="none" xmlns="http://www.w3.org/2000/svg">
<path fill-rule="evenodd" clip-rule="evenodd" d="M10.0117 0C9.54316 0 9.16337 0.379792 9.16337 0.848287V8.90694H9.16334C4.24414 8.90694 0.256348 12.8947 0.256348 17.8139C0.256348 22.7331 4.24415 26.7209 9.16334 26.7209H17.222C17.6905 26.7209 18.0703 26.3411 18.0703 25.8726V17.814H18.0704C22.9896 17.814 26.9774 13.8262 26.9774 8.90699C26.9774 3.9878 22.9896 0 18.0704 0H10.0117ZM18.0703 17.814V9.75523C18.0703 9.28673 17.6905 8.90694 17.222 8.90694H9.16337V16.9657C9.16337 17.4342 9.54317 17.814 10.0117 17.814H18.0703Z" fill="white"/>
<path d="M9.91608 0C9.50037 0 9.16338 0.336996 9.16338 0.752703L9.16338 8.90699H17.3177C17.7334 8.90699 18.0704 9.24399 18.0704 9.6597L18.0704 17.814C22.9896 17.814 26.9774 13.8262 26.9774 8.90699C26.9774 3.9878 22.9896 0 18.0704 0H9.91608Z" fill="white"/>
</svg>
