<svg width="14" height="14" viewBox="0 0 14 14" fill="none" xmlns="http://www.w3.org/2000/svg">
<path fill-rule="evenodd" clip-rule="evenodd" d="M3.05265 0C2.50826 0 1.98616 0.221249 1.60121 0.615076C1.21626 1.0089 1 1.54305 1 2.1V11.9C1 12.457 1.21626 12.9911 1.60121 13.3849C1.98616 13.7788 2.50826 14 3.05265 14H7.15796C7.70236 14 8.22446 13.7788 8.60941 13.3849C8.99436 12.9911 9.21062 12.457 9.21062 11.9V2.1C9.21062 1.54305 8.99436 1.0089 8.60941 0.615076C8.22446 0.221249 7.70236 0 7.15796 0H3.05265ZM10.0953 3.7051C10.2236 3.57387 10.3976 3.50015 10.5791 3.50015C10.7605 3.50015 10.9345 3.57387 11.0628 3.7051L13.7997 6.5051C13.9279 6.63637 14 6.81438 14 7C14 7.18561 13.9279 7.36363 13.7997 7.4949L11.0628 10.2949C10.9338 10.4224 10.7609 10.493 10.5815 10.4914C10.4021 10.4898 10.2305 10.4162 10.1036 10.2864C9.97679 10.1566 9.90483 9.98102 9.90327 9.79748C9.90171 9.61394 9.97068 9.43712 10.0953 9.3051L11.6642 7.7H5.78953C5.60806 7.7 5.43403 7.62625 5.30571 7.49497C5.1774 7.3637 5.10531 7.18565 5.10531 7C5.10531 6.81435 5.1774 6.6363 5.30571 6.50503C5.43403 6.37375 5.60806 6.3 5.78953 6.3H11.6642L10.0953 4.6949C9.96704 4.56363 9.89498 4.38561 9.89498 4.2C9.89498 4.01439 9.96704 3.83637 10.0953 3.7051Z" fill="#A3AED6"/>
</svg>
