<svg width="14" height="14" viewBox="0 0 14 14" fill="none" xmlns="http://www.w3.org/2000/svg">
<path fill-rule="evenodd" clip-rule="evenodd" d="M2.29897 1.58328C1.94274 1.58328 1.6011 1.72479 1.34921 1.97668C1.09732 2.22857 0.955811 2.57021 0.955811 2.92644V5.61275C0.955811 5.96898 1.09732 6.31062 1.34921 6.56251C1.6011 6.8144 1.94274 6.95591 2.29897 6.95591H11.7011C12.0573 6.95591 12.3989 6.8144 12.6508 6.56251C12.9027 6.31062 13.0442 5.96898 13.0442 5.61275V2.92644C13.0442 2.57021 12.9027 2.22857 12.6508 1.97668C12.3989 1.72479 12.0573 1.58328 11.7011 1.58328H2.29897ZM2.29897 7.62749C1.94274 7.62749 1.6011 7.769 1.34921 8.02089C1.09732 8.27278 0.955811 8.61442 0.955811 8.97064V11.657C0.955811 12.0132 1.09732 12.3548 1.34921 12.6067C1.6011 12.8586 1.94274 13.0001 2.29897 13.0001H11.7011C12.0573 13.0001 12.3989 12.8586 12.6508 12.6067C12.9027 12.3548 13.0442 12.0132 13.0442 11.657V8.97064C13.0442 8.61442 12.9027 8.27278 12.6508 8.02089C12.3989 7.769 12.0573 7.62749 11.7011 7.62749H2.29897ZM2.97055 10.3138C2.97055 10.1357 3.0413 9.96487 3.16725 9.83892C3.29319 9.71298 3.46401 9.64222 3.64212 9.64222H4.98528C5.16339 9.64222 5.33421 9.71298 5.46016 9.83892C5.5861 9.96487 5.65686 10.1357 5.65686 10.3138C5.65686 10.4919 5.5861 10.6627 5.46016 10.7887C5.33421 10.9146 5.16339 10.9854 4.98528 10.9854H3.64212C3.46401 10.9854 3.29319 10.9146 3.16725 10.7887C3.0413 10.6627 2.97055 10.4919 2.97055 10.3138ZM3.64212 3.59802C3.46401 3.59802 3.29319 3.66877 3.16725 3.79472C3.0413 3.92066 2.97055 4.09148 2.97055 4.2696C2.97055 4.44771 3.0413 4.61853 3.16725 4.74447C3.29319 4.87042 3.46401 4.94117 3.64212 4.94117H4.98528C5.16339 4.94117 5.33421 4.87042 5.46016 4.74447C5.5861 4.61853 5.65686 4.44771 5.65686 4.2696C5.65686 4.09148 5.5861 3.92066 5.46016 3.79472C5.33421 3.66877 5.16339 3.59802 4.98528 3.59802H3.64212Z" fill="#AEB9E1"/>
</svg>
