<svg width="14" height="15" viewBox="0 0 14 15" fill="none" xmlns="http://www.w3.org/2000/svg">
<path d="M1.56714 8.15797V8.16103C1.5491 8.22587 1.51785 8.28668 1.47515 8.33999C1.43245 8.3933 1.37914 8.43807 1.31829 8.47172C1.25743 8.50538 1.19021 8.52727 1.12048 8.53614C1.05074 8.54501 0.979856 8.54069 0.911872 8.52343C0.450404 8.40705 0.531776 7.8997 0.531776 7.8997L0.551049 7.83641C0.551049 7.83641 0.578887 7.75066 0.601372 7.68839C0.876134 6.95388 1.28062 6.26959 1.79734 5.66509C2.75775 4.5483 4.37342 3.43661 6.93773 3.43661C9.50204 3.43661 11.1177 4.5483 12.0792 5.66509C12.5959 6.26959 13.0004 6.95388 13.2752 7.68839C13.2982 7.75151 13.3196 7.81516 13.3394 7.87928L13.3426 7.89255V7.89664L13.3437 7.89868C13.3776 8.02859 13.3567 8.16603 13.2854 8.28137C13.214 8.3967 13.098 8.4807 12.9624 8.51524C12.8267 8.54979 12.6822 8.53213 12.5601 8.46606C12.4379 8.4 12.3479 8.29081 12.3094 8.16205L12.3083 8.15797L12.2998 8.13245L12.2623 8.02118C12.0289 7.40105 11.6868 6.82321 11.2505 6.3123C10.456 5.38845 9.1273 4.45745 6.93773 4.45745C4.74816 4.45745 3.42051 5.38845 2.62498 6.3123C2.18867 6.82321 1.84654 7.40105 1.61318 8.02118L1.5757 8.13245L1.56714 8.15797ZM4.261 9.0512C4.261 8.37434 4.54301 7.72521 5.045 7.2466C5.54698 6.76799 6.22782 6.49911 6.93773 6.49911C7.64764 6.49911 8.32848 6.76799 8.83047 7.2466C9.33245 7.72521 9.61446 8.37434 9.61446 9.0512C9.61446 9.72805 9.33245 10.3772 8.83047 10.8558C8.32848 11.3344 7.64764 11.6033 6.93773 11.6033C6.22782 11.6033 5.54698 11.3344 5.045 10.8558C4.54301 10.3772 4.261 9.72805 4.261 9.0512Z" fill="#AEB9E1"/>
</svg>
