<svg xmlns="http://www.w3.org/2000/svg" width="16" height="17" viewBox="0 0 16 17" fill="none">
  <path fill-rule="evenodd" clip-rule="evenodd" d="M13.6562 2.84375C12.1465 1.3313 10.1377 0.5 8 0.5C5.8623 0.5 3.85352 1.3313 2.34375 2.84375C0.831055 4.35315 0 6.36255 0 8.5C0 10.6375 0.831055 12.6469 2.34375 14.1562C3.85645 15.6687 5.8623 16.5 8 16.5C10.1377 16.5 12.1465 15.6687 13.6562 14.1562C15.1689 12.6438 16 10.6375 16 8.5C16 6.36255 15.1689 4.35315 13.6562 2.84375ZM8 14.5C4.69043 14.5 2 11.8093 2 8.5C2 5.19067 4.69043 2.5 8 2.5C11.3096 2.5 14 5.19067 14 8.5C14 11.8093 11.3096 14.5 8 14.5ZM6 11.5C5.87207 11.5 5.74316 11.45 5.64648 11.3531C5.4502 11.1594 5.4502 10.8406 5.64648 10.6469L7.14648 9.14685C7.05273 8.94995 7 8.7312 7 8.5C7 7.84692 7.41895 7.29065 8 7.08435V4C8 3.72498 8.22461 3.5 8.5 3.5C8.77441 3.5 9 3.72498 9 4V7.08435C9.58105 7.29065 10 7.84692 10 8.5C10 9.32812 9.32812 10 8.5 10C8.26855 10 8.0498 9.9469 7.85254 9.85315L6.35254 11.3531C6.25586 11.45 6.12793 11.5 6 11.5Z" fill="#180D5B"/>
</svg>