<svg width="67" height="68" viewBox="0 0 67 68" fill="none" xmlns="http://www.w3.org/2000/svg">
<path fill-rule="evenodd" clip-rule="evenodd" d="M33.4705 0L9.99447 23.476L9.99419 23.4615L0.0118562 33.5527H0L0.00591579 33.5587L3.37081e-05 33.5647H0.0117735L10.1883 43.895L10.1889 43.8587L23.3736 57.0058H30.7104L10.2853 36.3382L10.2851 36.3565L7.53171 33.5647H7.56845L9.99344 31.2199L9.99357 31.2198L10.1397 31.0784L10.1397 31.0741L33.4833 7.79784L36.2411 10.3137H36.2689L44.1977 18.4359L44.2462 18.4359L56.7632 30.8559L59.4801 33.7183L56.4721 36.4837L56.4725 36.513L36.1926 57.0543L36.1926 57.0544L33.5243 59.7712L30.7589 57.0543H23.433L33.5243 67.3396L43.761 57.0544H43.8095L56.5691 44.1776L56.5691 44.1492L67 33.7183L56.8117 23.4815L51.8146 18.4359L43.7125 10.2853H43.6843L37.3698 3.92259L37.3814 3.91098L33.4705 0ZM33.4757 33.7467L33.4757 33.6983H33.5728L33.5728 33.7467H33.4757ZM33.4757 25.208L42.4963 33.6497H42.5967L42.5479 33.698L42.5481 33.6983H42.5476L33.5728 42.5766L24.5489 33.7467H24.5974L33.4757 25.208ZM25.5677 18.998H33.5728L33.5728 18.9981H25.5677L10.916 33.6012H19.5518L33.5728 19.3377L33.5728 19.3577L47.4967 33.5042H56.1325L41.4918 18.912L41.4808 18.901L33.5243 10.9444L29.643 14.8742L25.5677 18.998ZM33.5728 55.9184L41.6263 47.8648L41.6264 47.8648L56.084 33.5042H47.4968L33.6213 47.5252L33.6213 47.8648L33.6213 47.5252L19.5518 33.6013H11.013L25.6162 47.8648L29.6915 51.9886L33.5728 55.9184Z" fill="white"/>
</svg>
